<?xml version="1.0" encoding="UTF-8"?><svg id="Layer_2" xmlns="http://www.w3.org/2000/svg" viewBox="0 0 54.89 89.94"><defs><style>.cls-1{fill:#6fa9a1;stroke:#cee2c4;stroke-miterlimit:10;}</style></defs><g id="Layer_1-2"><g><g><path class="cls-1" d="M53.39,2.35s2.26,26.06,0,29.05S12.57,44.75,9.26,48.9c-6.23,7.8,.27,13.14,.27,13.14,0,0-7.83-1.24-8.77-17.15-.34-5.78-.36-8.63,0-10.08,2.08-8.3,21.32-10.21,32.29-15.54,9.62-4.68,18.77-12.47,20.34-16.92Z"/><path class="cls-1" d="M52.68,31.96s2.54,.96-3.13,3.72c-3.9,1.9-9.98,3.66-9.98,7.56,0,3.21,10.86,4.62,11.64,5.66,.43,.58-6.17,8.17-16.21,11.12-3.88,1.14-13.19,3.15-15.95,3.41-11.91,1.13-12.99-4.99-12.84-4.74,0,0-2.74-7.82,6.25-11.76,12.85-5.63,41.56-14.67,40.21-14.96Z"/><path class="cls-1" d="M26.51,64.26c1.13-.42,2.17-.84,3.11-1.24,8.74-3.78,18.55-9.13,21.59-14.12,0,0,.47,7.24,.59,10.97,.11,3.46-.48,8.95-1.34,9.64-3.24,2.58-8.95,5.89-14.93,8.96l-9.02-14.21Z"/></g><g><path class="cls-1" d="M29.52,76.59c.79,1.23,2.4,1.29,3.32,2.44,1.88,2.36,1.6,4.33-1.05,5.52-1.69,.76-3.31,1.84-5.32,1.51l-1.5-.59,1.62-7.36c1.12-.23,2.11-.69,2.92-1.51Z"/><path class="cls-1" d="M23.79,80.91c-.54,2.45-1.08,4.91-1.62,7.37-.8,.21-1.36-.27-2.04-.58-1.31-.61-2.32-1.9-3.94-1.84h0l-.35-.5c-1.21-1.27-1.13-2.65-.33-4.08,.91-.85,1.77-1.79,3.11-1.95l5.18,1.59Z"/><path class="cls-1" d="M26.59,76.71c-1.73-.53-3.45-1.06-5.18-1.59,.18-1.67,.36-3.33,.55-5,1.25,.13,2.43-.18,3.6-.58,.83-.29,1.67-.83,2.47,.06l2.43,3.5c-.13,.78-.32,1.54-.95,2.1-.81,.82-1.81,1.28-2.92,1.52Z"/><path class="cls-1" d="M16.73,77.91c-2.75,2.05-4.7,1.94-7.5-.43-.25-1.94,1.27-3.55,1.01-5.48h0l.52-.38c1.35-.24,2.49-1.31,3.98-1.03,0,2.62,1.75,4.76,2,7.31Z"/><path class="cls-1" d="M16.73,75.11c-.25-2.55-2.01-4.69-2-7.31,1.46-.69,2.98-1.24,4.57-1.52,.49,.94,.93,1.93,1.96,2.44-.18,1.67-.36,3.33-.54,5-1.34,.16-2.2,1.1-3.11,1.95-.29-.19-.58-.37-.88-.56Z"/><path class="cls-1" d="M30.46,73.1c-.81-1.17-1.62-2.33-2.43-3.5,.95-.04,1.45-.53,1.5-1.48l2.49-1.05,3.03-.49c.45,1.1,1.01,2.17,.98,3.41-1.12,2.36-3.16,3.06-5.57,3.11Z"/><path class="cls-1" d="M29.53,66.02c-.05,.95-.55,1.44-1.5,1.48-.8-.89-1.64-.35-2.47-.06-1.17,.4-2.35,.71-3.6,.58-1.03-.51-1.47-1.5-1.96-2.44,2.23-1.05,4.59-1.68,7.01-2.11,1.07,.63-.41,3.76,2.52,2.55Z"/><path class="cls-1" d="M7.44,70.61c.26,1.94-1.26,3.55-1.01,5.48-.49-.05-1-.05-1.48-.16-1.36-.32-2.71-1.04-2.88-2.39-.21-1.63,1.48-1.62,2.61-2,.92-.31,1.84-.63,2.76-.94Z"/><path class="cls-1" d="M11.29,84.45c1.62-.06,2.63,1.23,3.94,1.84,.67,.32,1.24,.79,2.04,.58,.5,.2,1,.39,1.5,.59-.2,.13-.4,.26-.6,.4-3.82,2.52-4.92,2.16-6.39-2.05-.16-.45-.32-.9-.49-1.35Z"/><path class="cls-1" d="M11.45,70.23l-.52,.38c.07-.26,.18-.47,.52-.38Z"/><path class="cls-1" d="M18.64,81.16l.35,.5c-.27-.06-.47-.16-.35-.5Z"/></g></g></g></svg>